<svg width="548" height="129" viewBox="0 0 548 129" fill="none" xmlns="http://www.w3.org/2000/svg">
<path d="M114 34V37.75C117.956 37.75 119.481 39.1017 120.416 40.665C121.351 42.2284 121.5 44.2302 121.5 45.25H125.25C125.25 43.9748 125.164 41.2891 123.639 38.7388C122.113 36.1884 118.95 34 114 34Z" fill="#D94C48"/>
<path d="M338.072 30L334.548 31.2816C335.9 34.9997 335.151 36.8943 334.001 38.3075C332.852 39.7208 331.021 40.5447 330.063 40.8932L331.345 44.4174C332.543 43.9816 335.038 42.9833 336.913 40.6778C338.788 38.3724 339.764 34.6519 338.072 30Z" fill="#42A8E1"/>
<path d="M443.412 35.625L445.481 38.7526C448.781 36.5699 450.798 36.8562 452.44 37.6441C454.083 38.432 455.311 40.0195 455.874 40.8701L459.002 38.8012C458.298 37.7377 456.745 35.5449 454.066 34.2596C451.386 32.9742 447.541 32.8941 443.412 35.625Z" fill="#79CC81"/>
<path d="M235 60L231.48 58.7058C230.115 62.419 228.32 63.3833 226.53 63.7216C224.74 64.0598 222.81 63.5085 221.853 63.1566L220.559 66.6762C221.755 67.1162 224.306 67.9628 227.226 67.411C230.146 66.8592 233.292 64.6458 235 60Z" fill="#42A8E1"/>
<path d="M47.4414 98.8828L43.9218 97.5886C42.5564 101.302 40.7617 102.266 38.9716 102.604C37.1815 102.943 35.2514 102.391 34.2942 102.039L33 105.559C34.1968 105.999 36.7471 106.846 39.6673 106.294C42.5875 105.742 45.7331 103.529 47.4414 98.8828Z" fill="#79CC81"/>
<path d="M509.539 126.693L512.59 124.514C510.291 121.294 510.504 119.268 511.233 117.598C511.961 115.929 513.504 114.644 514.334 114.051L512.154 111C511.116 111.741 508.981 113.372 507.792 116.096C506.604 118.82 506.662 122.666 509.539 126.693Z" fill="#42A8E1"/>
<path d="M394.207 65C392.398 65 390.805 65.2175 389.46 65.7617C388.788 66.0338 388.157 66.3865 387.629 66.9482C387.101 67.51 386.707 68.3523 386.707 69.2188C386.707 70.9516 387.585 71.8019 387.9 72.4268C387.911 72.4472 387.906 72.4366 387.915 72.4561C387.418 72.4973 386.681 72.5072 385.784 72.5C384.889 72.4926 383.836 72.477 382.854 72.5366C382.363 72.5664 381.894 72.6103 381.418 72.7124C380.942 72.8145 380.442 72.9048 379.836 73.4448C379.327 73.8974 378.975 74.7268 379.001 75.3857C379.028 76.0447 379.263 76.4997 379.485 76.8652C379.928 77.5964 380.455 78.092 380.979 78.5864C381.422 79.0046 381.82 79.3619 382.144 79.6704C381.98 79.7437 381.869 79.8182 381.587 79.8755C381.138 79.9668 380.607 80.0061 380.173 80.0146C379.739 80.0232 379.551 80 379.207 80V83.75C379.096 83.75 379.67 83.776 380.247 83.7647C380.823 83.7533 381.553 83.7039 382.334 83.5449C383.115 83.386 383.972 83.1314 384.773 82.5122C385.573 81.893 386.238 80.7481 386.238 79.5312C386.238 78.6877 385.92 78.3117 385.696 78.0005C385.472 77.6893 385.245 77.4471 385.007 77.2095C384.676 76.8785 384.333 76.5786 383.997 76.272C384.578 76.2628 385.154 76.245 385.754 76.25C386.698 76.2575 387.547 76.2647 388.34 76.1914C389.132 76.1181 389.961 76.1156 390.845 75.2319C391.523 74.5533 391.887 73.5144 391.841 72.6831C391.794 71.8518 391.507 71.243 391.255 70.7422C390.813 69.8664 390.622 69.3941 390.559 69.4092C390.639 69.3538 390.667 69.3142 390.867 69.2334C391.514 68.9714 392.734 68.75 394.207 68.75V65Z" fill="#79CC81"/>
<path d="M514.203 26.7408C513.5 25.0745 512.68 23.6915 511.656 22.6641C511.144 22.1505 510.574 21.7066 509.851 21.4384C509.128 21.1703 508.198 21.134 507.4 21.4709C505.804 22.1445 505.362 23.2847 504.909 23.818C504.894 23.8356 504.902 23.8267 504.887 23.8429C504.656 23.4009 504.361 22.7258 504.018 21.8963C503.677 21.069 503.282 20.0928 502.846 19.2113C502.627 18.7705 502.405 18.3559 502.126 17.957C501.846 17.5581 501.568 17.1317 500.836 16.7841C500.221 16.4906 499.32 16.4886 498.723 16.7694C498.126 17.0502 497.798 17.4436 497.548 17.79C497.046 18.4828 496.795 19.1607 496.543 19.8357C496.33 20.4066 496.155 20.9118 495.997 21.3301C495.865 21.2076 495.754 21.1343 495.591 20.897C495.333 20.5187 495.09 20.0453 494.914 19.6487C494.737 19.2521 494.685 19.0698 494.551 18.7522L491.096 20.2101C491.053 20.1085 491.252 20.6472 491.487 21.174C491.722 21.7009 492.051 22.3537 492.501 23.0118C492.951 23.6699 493.519 24.3606 494.401 24.8574C495.282 25.3543 496.596 25.5212 497.717 25.0482C498.494 24.7202 498.717 24.2809 498.916 23.9537C499.116 23.6264 499.251 23.3236 499.377 23.0118C499.553 22.5777 499.696 22.1452 499.848 21.7161C500.083 22.2486 500.323 22.7722 500.552 23.3271C500.912 24.1996 501.235 24.9849 501.611 25.6864C501.987 26.388 502.311 27.1507 503.469 27.6213C504.358 27.9826 505.457 27.9143 506.204 27.5481C506.952 27.1819 507.402 26.6811 507.765 26.2537C508.4 25.5063 508.761 25.1463 508.722 25.0944C508.805 25.1469 508.852 25.1568 509.004 25.3095C509.497 25.8041 510.175 26.8417 510.748 28.1986L514.203 26.7408Z" fill="#E5CA10"/>
<path d="M202.818 25.0569C201.462 23.8608 200.123 22.9705 198.754 22.4894C198.07 22.2488 197.364 22.0963 196.596 22.1684C195.829 22.2405 194.975 22.6112 194.402 23.2611C193.256 24.5609 193.353 25.7798 193.176 26.4569C193.171 26.4792 193.174 26.4678 193.168 26.4886C192.768 26.1908 192.209 25.7108 191.54 25.112C190.874 24.5146 190.094 23.8065 189.318 23.2019C188.931 22.8995 188.55 22.6226 188.125 22.3843C187.701 22.146 187.266 21.8825 186.454 21.8874C185.773 21.8899 184.96 22.2791 184.545 22.791C184.129 23.303 184.004 23.7996 183.929 24.2204C183.778 25.0621 183.845 25.7822 183.911 26.4996C183.967 27.1064 184.029 27.6373 184.068 28.0829C183.896 28.0295 183.764 28.0119 183.514 27.8686C183.117 27.6401 182.693 27.3187 182.362 27.0381C182.031 26.7574 181.905 26.6156 181.647 26.3877L179.167 29.2005C179.084 29.1275 179.497 29.5264 179.937 29.8993C180.377 30.2721 180.957 30.7174 181.648 31.115C182.339 31.5125 183.15 31.8884 184.16 31.9534C185.17 32.0184 186.426 31.5989 187.231 30.6862C187.789 30.0535 187.799 29.5611 187.836 29.1796C187.874 28.7981 187.865 28.4667 187.843 28.1309C187.813 27.6634 187.755 27.2117 187.705 26.7593C188.148 27.1372 188.591 27.5047 189.038 27.9054C189.741 28.5351 190.373 29.1022 191.016 29.5713C191.659 30.0404 192.282 30.5866 193.53 30.5082C194.487 30.448 195.448 29.9096 195.962 29.2552C196.477 28.6008 196.665 27.9546 196.807 27.4119C197.054 26.4629 197.223 25.982 197.166 25.9518C197.263 25.9635 197.31 25.952 197.513 26.0234C198.172 26.2551 199.233 26.8956 200.338 27.8697L202.818 25.0569Z" fill="#79CC81"/>
<path d="M151.547 23.8245C151.715 22.0238 151.646 20.4176 151.229 19.0282C151.02 18.3335 150.728 17.6729 150.217 17.0949C149.707 16.517 148.905 16.0457 148.042 15.9653C146.317 15.8045 145.389 16.6005 144.737 16.8563C144.716 16.8649 144.727 16.8606 144.707 16.8682C144.712 16.3695 144.77 15.6348 144.861 14.7419C144.951 13.8517 145.065 12.8047 145.096 11.8215C145.112 11.3299 145.112 10.8593 145.054 10.3758C144.997 9.89239 144.954 9.38533 144.472 8.73266C144.069 8.18332 143.276 7.7557 142.617 7.72118C141.958 7.68665 141.484 7.87834 141.099 8.06519C140.33 8.43888 139.787 8.91728 139.247 9.39315C138.789 9.79562 138.396 10.1583 138.059 10.4521C138.001 10.2821 137.938 10.1647 137.907 9.87881C137.857 9.42317 137.868 8.89143 137.899 8.45842C137.931 8.02541 137.972 7.84036 138.004 7.49716L134.27 7.14914C134.28 7.03931 134.201 7.60812 134.159 8.18333C134.116 8.75855 134.098 9.4894 134.184 10.2821C134.269 11.0748 134.443 11.9518 134.986 12.8064C135.528 13.661 136.606 14.4286 137.818 14.5416C138.658 14.6198 139.062 14.338 139.392 14.144C139.723 13.9499 139.985 13.7469 140.244 13.5319C140.604 13.2324 140.934 12.9189 141.271 12.6125C141.226 13.1926 141.19 13.7676 141.13 14.3648C141.035 15.3037 140.949 16.1488 140.948 16.9445C140.948 17.7402 140.873 18.5658 141.671 19.5276C142.284 20.2663 143.284 20.7253 144.116 20.7559C144.948 20.7866 145.581 20.5577 146.103 20.3527C147.016 19.9942 147.504 19.8474 147.495 19.7836C147.543 19.8688 147.58 19.8998 147.642 20.1062C147.842 20.7751 147.95 22.01 147.813 23.4765L151.547 23.8245Z" fill="#E5CA10"/>
<path d="M29.5362 39.0003C28.0453 40.024 26.8552 41.1049 26.0547 42.3146C25.6544 42.9195 25.3341 43.5672 25.2167 44.3292C25.0994 45.0913 25.2507 46.0091 25.7411 46.7234C26.7219 48.1519 27.9276 48.3555 28.5411 48.6923C28.5613 48.7032 28.551 48.6974 28.5697 48.7082C28.1833 49.0235 27.5814 49.4488 26.8375 49.9508C26.0957 50.4511 25.2188 51.0342 24.443 51.6392C24.0551 51.9417 23.6937 52.2431 23.3591 52.5966C23.0244 52.9502 22.6626 53.3081 22.4694 54.0959C22.3055 54.7574 22.4846 55.6405 22.8796 56.1686C23.2747 56.6967 23.7259 56.9388 24.1156 57.1147C24.895 57.4664 25.6097 57.5769 26.3215 57.6879C26.9236 57.7818 27.4536 57.8514 27.8951 57.9224C27.8015 58.0756 27.7522 58.1998 27.5523 58.4065C27.2338 58.736 26.8188 59.0686 26.4658 59.3213C26.1127 59.5741 25.9446 59.6614 25.6604 59.8565L27.783 62.948C27.692 63.0104 28.1797 62.7071 28.6487 62.3714C29.1176 62.0356 29.691 61.582 30.2452 61.0087C30.7993 60.4354 31.3618 59.7405 31.6713 58.7769C31.9808 57.8133 31.8804 56.4934 31.1917 55.4903C30.7142 54.7949 30.2391 54.6649 29.8784 54.5351C29.5177 54.4053 29.1939 54.3338 28.8631 54.2727C28.4024 54.1875 27.95 54.1343 27.4992 54.0719C27.9737 53.735 28.4383 53.3944 28.9359 53.0588C29.7182 52.5309 30.4225 52.056 31.0342 51.5471C31.6459 51.0382 32.3278 50.567 32.5561 49.3383C32.7315 48.3948 32.4437 47.3322 31.9346 46.6733C31.4256 46.0144 30.8447 45.6748 30.353 45.4049C29.4932 44.9329 29.068 44.6518 29.0249 44.6998C29.0598 44.6085 29.0601 44.5605 29.179 44.3807C29.5644 43.7983 30.4446 42.9254 31.6587 42.0918L29.5362 39.0003Z" fill="#42A8E1"/>
<path d="M373.585 5.99904C372.98 7.7034 372.653 9.2773 372.716 10.7266C372.748 11.4513 372.869 12.1635 373.222 12.849C373.575 13.5346 374.236 14.1883 375.053 14.478C376.686 15.0575 377.781 14.5137 378.476 14.4257C378.498 14.4226 378.487 14.424 378.508 14.4217C378.381 14.9039 378.144 15.6017 377.837 16.445C377.531 17.2858 377.164 18.2729 376.892 19.2183C376.755 19.691 376.64 20.1472 376.577 20.63C376.514 21.1127 376.432 21.6149 376.738 22.3659C376.994 22.9974 377.658 23.6067 378.288 23.8018C378.918 23.997 379.426 23.9277 379.844 23.841C380.682 23.6676 381.325 23.337 381.966 23.0085C382.508 22.7306 382.978 22.4755 383.377 22.2734C383.391 22.4524 383.424 22.5819 383.384 22.8666C383.32 23.3204 383.18 23.8334 383.043 24.2454C382.905 24.6573 382.821 24.8267 382.705 25.1516L386.24 26.4056C386.203 26.5096 386.419 25.9776 386.601 25.4304C386.783 24.8831 386.981 24.1792 387.092 23.3897C387.204 22.6001 387.25 21.7073 386.935 20.7458C386.619 19.7842 385.762 18.7753 384.615 18.3684C383.82 18.0863 383.359 18.2604 382.991 18.3673C382.623 18.4742 382.319 18.6067 382.015 18.7516C381.593 18.9534 381.195 19.1763 380.794 19.3906C380.98 18.8393 381.156 18.2906 381.361 17.7267C381.684 16.8398 381.975 16.0417 382.17 15.2705C382.366 14.4992 382.641 13.7172 382.104 12.589C381.691 11.7225 380.834 11.0318 380.035 10.7979C379.236 10.5639 378.566 10.6304 378.01 10.701C377.037 10.8244 376.528 10.8468 376.521 10.911C376.495 10.8166 376.467 10.7776 376.458 10.5623C376.428 9.86449 376.627 8.64105 377.119 7.25307L373.585 5.99904Z" fill="#FF726E"/>
<path d="M252.115 0.885635C250.123 0.401608 248.069 1.6524 247.585 3.64392L246.257 9.1098L245.814 10.9318L247.636 11.3746C250.678 12.1141 252.513 15.1262 251.773 18.1689C251.034 21.2116 248.022 23.0459 244.979 22.3063L243.157 21.8635L242.271 25.5074L241.386 29.1514C240.902 31.1429 242.152 33.1969 244.144 33.6809L291.515 45.1942C293.506 45.6782 295.56 44.4274 296.044 42.4359L297.373 36.97L297.816 35.148L295.994 34.7052C292.951 33.9657 291.117 30.9536 291.856 27.9109C292.596 24.8682 295.608 23.0339 298.651 23.7735L300.473 24.2163L301.358 20.5724L302.244 16.9284C302.728 14.9369 301.477 12.8829 299.486 12.3989L252.115 0.885635ZM251.229 4.52955L298.6 16.0428L297.669 19.8718L297.662 19.87C293.314 19.7167 289.278 22.6412 288.212 27.0253C287.147 31.4093 289.397 35.8616 293.331 37.7213L292.401 41.5502L245.03 30.037L245.96 26.208L245.967 26.2098C250.316 26.3631 254.352 23.4386 255.417 19.0545C256.483 14.6705 254.232 10.2182 250.298 8.35852L251.229 4.52955ZM274.029 13.9301L269.729 19.4954L262.758 18.5623L266.722 24.3648L263.686 30.7123L270.431 28.7335L275.515 33.5871L275.725 26.5529L281.917 23.2188L275.295 20.8481L274.029 13.9301Z" fill="#E5CA10"/>
<path d="M82.5728 79.8768C80.6074 80.4576 79.4585 82.5703 80.0392 84.5357L81.6333 89.9301L82.1646 91.7283L83.9628 91.1969C86.9657 90.3096 90.0638 91.9944 90.9512 94.9973C91.8386 98.0003 90.1538 101.098 87.1508 101.986L85.3527 102.517L86.4154 106.113L87.4781 109.71C88.0588 111.675 90.1715 112.824 92.137 112.243L138.889 98.4283C140.854 97.8475 142.003 95.7348 141.422 93.7694L139.828 88.3749L139.297 86.5768L137.499 87.1082C134.496 87.9955 131.398 86.3107 130.51 83.3078C129.623 80.3048 131.308 77.2067 134.311 76.3193L136.109 75.788L135.046 72.1917L133.983 68.5954C133.403 66.63 131.29 65.4811 129.324 66.0618L82.5728 79.8768ZM83.6355 83.473L130.387 69.6581L131.504 73.437L131.497 73.4391C127.658 75.4888 125.635 80.0437 126.914 84.3705C128.192 88.6972 132.373 91.4188 136.709 91.0531L137.826 94.832L91.0743 108.647L89.9577 104.868L89.9647 104.866C93.8029 102.816 95.826 98.2614 94.5475 93.9346C93.2689 89.6079 89.088 86.8862 84.7522 87.2519L83.6355 83.473ZM108.074 80.1619L107.148 87.1334L100.65 89.825L106.99 92.8545L107.551 99.868L112.391 94.7717L119.224 96.4184L115.876 90.2289L119.558 84.2376L112.641 85.5103L108.074 80.1619Z" fill="#E5CA10"/>
<path d="M403.874 101.728C402.303 103.044 402.092 105.44 403.409 107.01L407.023 111.321L408.227 112.758L409.664 111.553C412.064 109.542 415.577 109.851 417.589 112.25C419.6 114.65 419.291 118.163 416.892 120.175L415.455 121.379L417.864 124.253L420.273 127.127C421.59 128.698 423.985 128.908 425.556 127.592L462.915 96.2729C464.486 94.9563 464.696 92.5606 463.38 90.99L459.766 86.6793L458.561 85.2425L457.125 86.447C454.725 88.4587 451.212 88.1497 449.2 85.75C447.189 83.3504 447.498 79.8373 449.897 77.8257L451.334 76.6211L448.925 73.7473L446.516 70.8736C445.199 69.303 442.804 69.0923 441.233 70.4089L403.874 101.728ZM406.283 104.601L443.642 73.2827L446.173 76.3024L446.168 76.3071C443.466 79.7179 443.428 84.7017 446.326 88.1592C449.225 91.6167 454.144 92.4445 457.974 90.3794L460.506 93.3991L423.147 124.718L420.615 121.698L420.621 121.693C423.323 118.283 423.361 113.299 420.462 109.841C417.564 106.384 412.644 105.556 408.814 107.621L406.283 104.601ZM427.372 91.8158L429.304 98.5781L424.419 103.639L431.441 103.887L434.753 110.095L437.159 103.491L444.082 102.275L438.542 97.9349L439.528 90.9718L433.693 94.8985L427.372 91.8158Z" fill="#E5CA10"/>
<path d="M179 68.875L180.875 67L182.75 68.875L180.875 70.75L179 68.875Z" fill="#E5CA10"/>
<path d="M187 75.875L188.875 74L190.75 75.875L188.875 77.75L187 75.875Z" fill="#79CC81"/>
<path d="M425.5 24.875L427.375 23L429.25 24.875L427.375 26.75L425.5 24.875Z" fill="#E5CA10"/>
<path d="M54 7.875L55.875 6L57.75 7.875L55.875 9.75L54 7.875Z" fill="#42A8E1"/>
<path d="M284.5 60.875L286.375 59L288.25 60.875L286.375 62.75L284.5 60.875Z" fill="#D94C48"/>
<path d="M402.5 43.875L404.375 42L406.25 43.875L404.375 45.75L402.5 43.875Z" fill="#42A8E1"/>
<path d="M470 55.875L471.875 54L473.75 55.875L471.875 57.75L470 55.875Z" fill="#D94C48"/>
<path d="M470 112.875L471.875 111L473.75 112.875L471.875 114.75L470 112.875Z" fill="#42A8E1"/>
<path d="M497 96.875L498.875 95L500.75 96.875L498.875 98.75L497 96.875Z" fill="#E5CA10"/>
<path d="M213.806 1.875L215.681 0L217.556 1.875L215.681 3.75L213.806 1.875Z" fill="#42A8E1"/>
<path d="M75 39.875L76.875 38L78.75 39.875L76.875 41.75L75 39.875Z" fill="#FF726E"/>
<path d="M69.9766 114.875L71.8516 113L73.7266 114.875L71.8516 116.75L69.9766 114.875Z" fill="#FF726E"/>
<path d="M324.083 3.875L325.958 2L327.833 3.875L325.958 5.75L324.083 3.875Z" fill="#E5CA10"/>
</svg>
